# xmcd CD database file
#
# Track frame offsets:
#	150
#	18132
#	37145
#	58385
#	83182
#	103455
#	127502
#	148075
#	169385
#	189787
#
# Disc length: 2747 seconds
#
# Revision: 2
# Processed by: cddbd v1.4PL0 Copyright (c) Steve Scherf et al.
# Submitted via: CDex 1.40Release
#
DISCID=880ab90a
DTITLE=Cengiz Kurtoglu - Gozü Yasli - Yasanmiyor
DYEAR=1999
DGENRE=
TTITLE0=Gözü Yasli
TTITLE1=Yasanmiyor
TTITLE2=Sende Yanarsin (Yarali)
TTITLE3=Ayrilmayalim
TTITLE4=Yalanin Batsin
TTITLE5=Gittin Gideli
TTITLE6=Sevmek Yetmezmi
TTITLE7=Adi Hasret
TTITLE8=Nasil Unutacagim
TTITLE9=Seni Seveli
EXTD=YEAR: 1999
EXTT0=
EXTT1=
EXTT2=
EXTT3=
EXTT4=
EXTT5=
EXTT6=
EXTT7=
EXTT8=
EXTT9=
PLAYORDER=
